<svg width="216" height="52" viewBox="0 0 216 52" fill="none" xmlns="http://www.w3.org/2000/svg">
<path d="M0.966203 24.9138C1.26537 24.9135 1.51407 24.6707 1.52162 24.3716C1.60009 20.7581 2.89298 17.2441 5.19183 14.3951C5.38185 14.1587 5.34813 13.8181 5.11625 13.6344C4.88461 13.4507 4.54277 13.4937 4.35276 13.7301C1.90063 16.7694 0.521768 20.5183 0.438136 24.3728C0.434509 24.5164 0.488104 24.6542 0.587114 24.7556C0.686124 24.857 0.822538 24.9139 0.966194 24.9137L0.966203 24.9138Z" fill="white"/>
<path d="M8.80072 10.933C8.90787 10.9326 9.0134 10.9004 9.10391 10.8405C11.8095 9.06448 14.9586 8.11207 18.157 8.10247C21.3548 8.09283 24.4597 9.02664 27.0824 10.7866C27.327 10.9367 27.6519 10.8642 27.8186 10.622C27.9855 10.3798 27.9348 10.0543 27.7037 9.88409C24.9059 8.00658 21.5937 7.01069 18.1823 7.02085C14.7709 7.03123 11.4118 8.04748 8.52531 9.94245C8.32436 10.0754 8.23035 10.3216 8.29377 10.5493C8.35718 10.7769 8.56293 10.9326 8.80089 10.9331L8.80072 10.933Z" fill="white"/>
<path d="M34.554 24.8739C34.8531 24.8735 35.1018 24.6308 35.1094 24.3317C35.1755 22.0118 34.7714 19.7147 33.9214 17.5792C33.0713 15.4434 31.7929 13.5131 30.1633 11.9044C29.9502 11.6961 29.6037 11.7042 29.3895 11.9228C29.1752 12.1413 29.1745 12.4875 29.3876 12.6959C30.914 14.2023 32.1117 16.0097 32.9088 18.0095C33.7059 20.0093 34.0859 22.1602 34.0259 24.3332C34.0223 24.4768 34.0759 24.6145 34.1749 24.716C34.2739 24.8174 34.4103 24.8743 34.554 24.8741L34.554 24.8739Z" fill="white"/>
<path d="M7.69257 38.6011C7.90297 38.6011 8.09758 38.4795 8.19163 38.2891C8.28593 38.0985 8.26283 37.8737 8.1322 37.7124C6.86883 36.1517 5.97576 33.8728 5.47794 30.9462C5.4278 30.6525 5.14775 30.4611 4.85223 30.519C4.55692 30.5772 4.35819 30.8622 4.40832 31.1558C4.93638 34.2716 5.8931 36.7129 7.28038 38.4144L7.28014 38.4147C7.38181 38.5352 7.53268 38.6034 7.6926 38.601L7.69257 38.6011Z" fill="white"/>
<path d="M4.50138 27.046L4.53113 27.0459C4.82998 27.0296 5.06543 26.7748 5.05749 26.4767C5.03073 25.4967 5.04948 24.7547 5.05851 24.3971C5.12077 21.9614 5.87848 19.5758 7.24264 17.5217C8.60649 15.4679 10.52 13.8311 12.7568 12.8048C12.8953 12.7491 13.0067 12.6397 13.0646 12.502C13.1227 12.3644 13.1225 12.2104 13.064 12.0761C13.0055 11.9417 12.8939 11.8386 12.7551 11.7907C12.6163 11.7427 12.4624 11.7543 12.3294 11.8224C9.90593 12.9323 7.83189 14.7027 6.35153 16.9255C4.87117 19.1483 4.0461 21.7307 3.97315 24.3686C3.96336 24.7559 3.94407 25.5194 3.9726 26.5347C3.98105 26.8221 4.21335 27.0467 4.5014 27.0459L4.50138 27.046Z" fill="white"/>
<path d="M32.8158 30.6213C33.0552 30.621 33.2701 30.4639 33.3446 30.2348C33.419 30.0056 33.3353 29.7586 33.1389 29.6273C31.6553 28.6355 31.5223 26.28 31.5714 24.3385L31.5716 24.3385C31.6604 20.6811 30.2942 17.1764 27.7728 14.5931C25.2513 12.0098 21.7805 10.5591 18.1218 10.5592C17.8227 10.5595 17.574 10.8023 17.5664 11.1014C17.5588 11.4004 17.7953 11.6426 18.0945 11.6423C21.4657 11.6418 24.6641 12.978 26.9876 15.358C29.3116 17.7379 30.5712 20.9669 30.4904 24.3369C30.4345 26.549 30.6153 29.2538 32.5227 30.5295C32.6085 30.5879 32.7102 30.62 32.8154 30.6211L32.8158 30.6213Z" fill="white"/>
<path d="M12.8784 40.8965C13.0956 40.8953 13.2946 40.7647 13.3838 40.5647C13.4732 40.3646 13.436 40.1338 13.289 39.9781C8.97541 35.4288 8.49591 28.246 8.59399 24.3636C8.64935 22.2006 9.46719 20.1063 10.903 18.4502C12.3388 16.7942 14.3007 15.6829 16.4423 15.3121C18.5839 14.9416 20.7677 15.3354 22.6084 16.4243C22.8605 16.5461 23.1688 16.4514 23.3169 16.2068C23.4648 15.962 23.4026 15.6495 23.1737 15.4894C21.1159 14.2737 18.6752 13.8345 16.2821 14.2493C13.8891 14.6641 11.6968 15.9065 10.0921 17.7568C8.48745 19.6074 7.57316 21.9475 7.51042 24.3647C7.40836 28.4045 7.9204 35.9071 12.4954 40.7289C12.5938 40.8349 12.732 40.8952 12.8783 40.8965L12.8784 40.8965Z" fill="white"/>
<path d="M27.4817 24.882C27.7809 24.8816 28.0296 24.6389 28.0371 24.3398C28.0941 21.9587 27.3234 19.6536 25.8563 17.8169C25.6686 17.5961 25.3351 17.5695 25.1042 17.7569C24.8734 17.9442 24.8291 18.2777 25.0045 18.5084C26.3156 20.1509 27.0045 22.212 26.9536 24.341C26.95 24.4846 27.0036 24.6223 27.1026 24.7237C27.2016 24.8251 27.338 24.882 27.4817 24.8818L27.4817 24.882Z" fill="white"/>
<path d="M31.4592 34.254C31.7319 34.257 31.9699 34.057 32.0147 33.7867C32.0592 33.5166 31.8967 33.2608 31.6351 33.1896C29.3568 32.5613 28.5323 29.2834 28.2443 27.3857C28.2227 27.2443 28.1456 27.1187 28.0297 27.0367C27.914 26.9544 27.7692 26.9226 27.6268 26.9479C27.3309 27.0005 27.1274 27.2819 27.1722 27.5765C27.4998 29.726 28.473 33.4479 31.3216 34.2351C31.3662 34.2474 31.4125 34.2536 31.4592 34.2541L31.4592 34.254Z" fill="white"/>
<path d="M17.9074 41.6808C18.1418 41.681 18.3533 41.5306 18.4322 41.3081C18.5113 41.0858 18.4396 40.8415 18.2545 40.703C13.6561 37.2372 12.3988 31.4663 12.159 27.2371C12.1508 27.0935 12.0857 26.9604 11.978 26.8674C11.8704 26.7743 11.7291 26.7287 11.5851 26.7408C11.2853 26.7658 11.0562 27.0286 11.0733 27.3276C11.3292 31.7787 12.6624 37.8691 17.588 41.5753C17.6796 41.644 17.7918 41.6809 17.9077 41.6805L17.9074 41.6808Z" fill="white"/>
<path d="M29.1515 36.9372C29.45 36.9637 29.7199 36.7426 29.7543 36.4436C29.7889 36.1445 29.5748 35.8805 29.2763 35.854C24.4799 34.9745 24.4599 26.1123 24.5047 24.3416C24.5582 22.2881 23.6704 20.3476 22.0944 19.0723C20.5181 17.7973 18.4259 17.3271 16.4139 17.796C14.4016 18.2647 12.6896 19.6211 11.7653 21.4786C11.6386 21.7471 11.7467 22.062 12.0091 22.1881C12.2712 22.3142 12.5919 22.2055 12.7313 21.9433C13.5073 20.3853 14.9433 19.248 16.6313 18.8551C18.3192 18.4621 20.0739 18.8568 21.3959 19.9261C22.7181 20.9957 23.4629 22.6233 23.4185 24.3456C23.3501 27.0533 23.5543 35.9155 29.0598 36.9208C29.0898 36.929 29.1204 36.9342 29.1515 36.9371L29.1515 36.9372Z" fill="white"/>
<path d="M22.7046 40.8142C22.9624 40.8149 23.1894 40.6338 23.2478 40.3813C23.3062 40.1288 23.1793 39.8749 22.9449 39.7744C21.0237 38.9617 19.464 37.4978 18.534 35.6341C18.397 35.372 18.0703 35.2759 17.804 35.4198C17.538 35.5637 17.4332 35.8929 17.5702 36.1553C18.6115 38.2358 20.3569 39.8684 22.5052 40.7712C22.5678 40.7982 22.6357 40.8128 22.7046 40.8142Z" fill="white"/>
<path d="M16.7759 33.5159C16.9616 33.5171 17.1373 33.4231 17.2416 33.2671C17.3462 33.111 17.3647 32.9145 17.2911 32.7463C16.1835 30.1029 15.6307 27.2479 15.6665 24.3549C15.6856 23.6013 16.1054 22.9046 16.7679 22.5269C17.4301 22.1494 18.2345 22.1484 18.878 22.5243C19.5212 22.9004 19.9058 23.5962 19.8868 24.3498C19.8792 24.6489 20.1157 24.8911 20.4148 24.8907C20.714 24.8904 20.9627 24.6476 20.9703 24.3485C20.9991 23.2079 20.417 22.1548 19.4434 21.5857C18.4696 21.0165 17.2522 21.018 16.2498 21.5895C15.2472 22.161 14.6119 23.2155 14.5831 24.3562C14.5455 27.4035 15.1276 30.4105 16.2938 33.1943C16.375 33.3883 16.5636 33.5143 16.7758 33.516L16.7759 33.5159Z" fill="white"/>
<path d="M26.6695 38.8952C26.9685 38.9024 27.2231 38.6656 27.2382 38.3666C27.2532 38.0675 27.023 37.8193 26.724 37.8121C23.1041 37.6405 21.7422 33.0121 21.2388 29.1382C21.1999 28.8392 20.9251 28.6345 20.6248 28.6813C20.3242 28.7281 20.1123 29.0083 20.1511 29.3072C20.9474 35.4173 23.1878 38.7342 26.6287 38.8978L26.6695 38.8952Z" fill="white"/>
<path d="M1.94974 31.0019C2.12871 31.0015 2.29831 30.9128 2.4029 30.7647C2.50749 30.6166 2.53328 30.4285 2.47219 30.262C1.78925 28.3846 1.46683 26.3867 1.52134 24.3714C1.52889 24.0723 1.29244 23.8301 0.993279 23.8305C0.694116 23.8309 0.445414 24.0736 0.437859 24.3727C0.380456 26.5205 0.72426 28.6494 1.45217 30.6507C1.52567 30.8619 1.72407 31.0019 1.9497 31.0021L1.94974 31.0019Z" fill="white"/>
<g filter="url(#filter0_f_2_139)">
<path d="M202.778 13.0437C202.382 12.7275 201.805 12.7604 201.45 13.1193L189.52 24.6476L177.77 12.9428C177.749 12.9204 177.727 12.8988 177.705 12.8784C177.513 12.7039 177.258 12.6119 176.997 12.6217C176.736 12.6319 176.489 12.7435 176.311 12.9316C176.134 13.1203 176.04 13.3701 176.05 13.6266C176.06 13.8829 176.174 14.1249 176.366 14.2989L188.116 26.0038L176.186 37.532C175.996 37.7108 175.886 37.9571 175.883 38.2157C175.879 38.4745 175.98 38.7238 176.166 38.9083C176.351 39.0927 176.603 39.1964 176.867 39.1964C177.131 39.1967 177.383 39.093 177.568 38.909L202.832 14.4962C203.038 14.3054 203.151 14.0362 203.14 13.7582C203.13 13.4797 202.998 13.2195 202.778 13.0437ZM192.91 28.0259C192.718 27.8515 192.463 27.7595 192.202 27.7694C191.941 27.7794 191.694 27.891 191.517 28.0794C191.339 28.2678 191.245 28.5178 191.256 28.7744C191.266 29.0306 191.379 29.2725 191.572 29.4467L201.248 39.086C201.43 39.2727 201.682 39.3802 201.945 39.3838C202.209 39.3877 202.463 39.2878 202.651 39.1062C202.839 38.9245 202.945 38.6767 202.945 38.4179C202.945 38.1593 202.839 37.9114 202.652 37.7298L192.975 28.0905C192.954 28.0679 192.933 28.0466 192.91 28.0259Z" fill="white"/>
</g>
<path d="M202.778 13.0437C202.382 12.7275 201.805 12.7604 201.45 13.1193L189.52 24.6476L177.77 12.9428C177.749 12.9204 177.727 12.8988 177.705 12.8784C177.513 12.7039 177.258 12.6119 176.997 12.6217C176.736 12.6319 176.489 12.7435 176.311 12.9316C176.134 13.1203 176.04 13.3701 176.05 13.6266C176.06 13.8829 176.174 14.1249 176.366 14.2989L188.116 26.0038L176.186 37.532C175.996 37.7108 175.886 37.9571 175.883 38.2157C175.879 38.4745 175.98 38.7238 176.166 38.9083C176.351 39.0927 176.603 39.1964 176.867 39.1964C177.131 39.1967 177.383 39.093 177.568 38.909L202.832 14.4962C203.038 14.3054 203.151 14.0362 203.14 13.7582C203.13 13.4797 202.998 13.2195 202.778 13.0437ZM192.91 28.0259C192.718 27.8515 192.463 27.7595 192.202 27.7694C191.941 27.7794 191.694 27.891 191.517 28.0794C191.339 28.2678 191.245 28.5178 191.256 28.7744C191.266 29.0306 191.379 29.2725 191.572 29.4467L201.248 39.086C201.43 39.2727 201.682 39.3802 201.945 39.3838C202.209 39.3877 202.463 39.2878 202.651 39.1062C202.839 38.9245 202.945 38.6767 202.945 38.4179C202.945 38.1593 202.839 37.9114 202.652 37.7298L192.975 28.0905C192.954 28.0679 192.933 28.0466 192.91 28.0259Z" fill="white"/>
<g filter="url(#filter1_f_2_139)">
<path d="M143.923 14.9783C145.27 14.9783 146.362 13.8298 146.362 12.413C146.362 10.9962 145.27 9.84766 143.923 9.84766C142.576 9.84766 141.484 10.9962 141.484 12.413C141.484 13.8298 142.576 14.9783 143.923 14.9783Z" fill="white"/>
<path d="M139.284 21.8042C140.631 21.8042 141.723 20.6557 141.723 19.2389C141.723 17.8221 140.631 16.6736 139.284 16.6736C137.937 16.6736 136.845 17.8221 136.845 19.2389C136.845 20.6557 137.937 21.8042 139.284 21.8042Z" fill="white"/>
<path d="M148.561 21.8042C149.908 21.8042 151 20.6557 151 19.2389C151 17.8221 149.908 16.6736 148.561 16.6736C147.214 16.6736 146.122 17.8221 146.122 19.2389C146.122 20.6557 147.214 21.8042 148.561 21.8042Z" fill="white"/>
<path d="M125.078 14.1306C126.425 14.1306 127.517 12.9821 127.517 11.5653C127.517 10.1485 126.425 9 125.078 9C123.731 9 122.639 10.1485 122.639 11.5653C122.639 12.9821 123.731 14.1306 125.078 14.1306Z" fill="white"/>
<path d="M120.439 20.9566C121.786 20.9566 122.878 19.808 122.878 18.3912C122.878 16.9745 121.786 15.8259 120.439 15.8259C119.092 15.8259 118 16.9745 118 18.3912C118 19.808 119.092 20.9566 120.439 20.9566Z" fill="white"/>
</g>
<path d="M143.923 14.9783C145.27 14.9783 146.362 13.8298 146.362 12.413C146.362 10.9962 145.27 9.84766 143.923 9.84766C142.576 9.84766 141.484 10.9962 141.484 12.413C141.484 13.8298 142.576 14.9783 143.923 14.9783Z" fill="white"/>
<path d="M139.284 21.8042C140.631 21.8042 141.723 20.6557 141.723 19.2389C141.723 17.8221 140.631 16.6736 139.284 16.6736C137.937 16.6736 136.845 17.8221 136.845 19.2389C136.845 20.6557 137.937 21.8042 139.284 21.8042Z" fill="white"/>
<path d="M148.561 21.8042C149.908 21.8042 151 20.6557 151 19.2389C151 17.8221 149.908 16.6736 148.561 16.6736C147.214 16.6736 146.122 17.8221 146.122 19.2389C146.122 20.6557 147.214 21.8042 148.561 21.8042Z" fill="white"/>
<path d="M125.078 14.1306C126.425 14.1306 127.517 12.9821 127.517 11.5653C127.517 10.1485 126.425 9 125.078 9C123.731 9 122.639 10.1485 122.639 11.5653C122.639 12.9821 123.731 14.1306 125.078 14.1306Z" fill="white"/>
<path d="M120.439 20.9566C121.786 20.9566 122.878 19.808 122.878 18.3912C122.878 16.9745 121.786 15.8259 120.439 15.8259C119.092 15.8259 118 16.9745 118 18.3912C118 19.808 119.092 20.9566 120.439 20.9566Z" fill="white"/>
<path d="M122.547 29.9671C124.76 26.7697 124.815 26.6769 125.591 24.9839C126.366 23.291 126.247 22.2849 127.153 20.7788C128.162 19.1026 130.472 18.33 132.324 19.7498C134.177 21.1696 133.852 24.1614 134.844 26.7508C135.837 29.3402 138.057 33.1116 141.179 33.6932M146.833 27.0714C145.965 28.3199 134.522 41.9425 134.522 41.9425C133.264 40.8528 127.958 35.6304 125.611 33.1116" stroke="white" stroke-linecap="round"/>
<g filter="url(#filter2_f_2_139)">
<path d="M61 15.8225V10C61 9.44771 61.4477 9 62 9H68.8165" stroke="white" stroke-linecap="round"/>
<path d="M67.7976 40.8877L62 40.8877C61.4477 40.8877 61 40.44 61 39.8877L61 33.0425" stroke="white" stroke-linecap="round"/>
<path d="M86.2024 40.8877L92 40.8877C92.5523 40.8877 93 40.44 93 39.8877L93 33.0425" stroke="white" stroke-linecap="round"/>
<path d="M85.9749 9L91.7725 9C92.3247 9 92.7725 9.44772 92.7725 10L92.7725 16.8452" stroke="white" stroke-linecap="round"/>
<path d="M76.7748 16.3226C81.5778 16.3226 85.475 20.231 85.475 25.056C85.475 29.8811 81.5778 33.7894 76.7748 33.7894C71.9721 33.7892 68.0756 29.881 68.0756 25.056C68.0756 20.2311 71.9721 16.3229 76.7748 16.3226Z" stroke="white"/>
<ellipse cx="76.7753" cy="25.0561" rx="3.34533" ry="3.35761" fill="white"/>
</g>
<path d="M61 15.9348V10.1123C61 9.56002 61.4477 9.1123 62 9.1123H68.8165" stroke="white" stroke-linecap="round"/>
<path d="M67.7976 41L62 41C61.4477 41 61 40.5523 61 40L61 33.1548" stroke="white" stroke-linecap="round"/>
<path d="M86.2024 41L92 41C92.5523 41 93 40.5523 93 40L93 33.1548" stroke="white" stroke-linecap="round"/>
<path d="M85.9749 9.1123L91.7725 9.1123C92.3247 9.1123 92.7725 9.56002 92.7725 10.1123L92.7725 16.9575" stroke="white" stroke-linecap="round"/>
<path d="M76.7748 16.4349C81.5778 16.4349 85.475 20.3433 85.475 25.1683C85.475 29.9934 81.5778 33.9017 76.7748 33.9017C71.9721 33.9015 68.0756 29.9933 68.0756 25.1683C68.0756 20.3434 71.9721 16.4352 76.7748 16.4349Z" stroke="white"/>
<ellipse cx="76.7753" cy="25.1684" rx="3.34533" ry="3.35761" fill="white"/>
<defs>
<filter id="filter0_f_2_139" x="171.882" y="8.62097" width="35.2585" height="34.7629" filterUnits="userSpaceOnUse" color-interpolation-filters="sRGB">
<feFlood flood-opacity="0" result="BackgroundImageFix"/>
<feBlend mode="normal" in="SourceGraphic" in2="BackgroundImageFix" result="shape"/>
<feGaussianBlur stdDeviation="2" result="effect1_foregroundBlur_2_139"/>
</filter>
<filter id="filter1_f_2_139" x="114" y="5" width="41" height="20.8042" filterUnits="userSpaceOnUse" color-interpolation-filters="sRGB">
<feFlood flood-opacity="0" result="BackgroundImageFix"/>
<feBlend mode="normal" in="SourceGraphic" in2="BackgroundImageFix" result="shape"/>
<feGaussianBlur stdDeviation="2" result="effect1_foregroundBlur_2_139"/>
</filter>
<filter id="filter2_f_2_139" x="56.5" y="4.5" width="41" height="40.8877" filterUnits="userSpaceOnUse" color-interpolation-filters="sRGB">
<feFlood flood-opacity="0" result="BackgroundImageFix"/>
<feBlend mode="normal" in="SourceGraphic" in2="BackgroundImageFix" result="shape"/>
<feGaussianBlur stdDeviation="2" result="effect1_foregroundBlur_2_139"/>
</filter>
</defs>
</svg>
